# xmcd
#
# Track frame offsets: 
#        150
#        15142
#        25947
#        36747
#        49655
#        61980
#        75210
#        92372
#        108377
#        123973
#        138673
#        152413
#        166925
#
# Disc length: 2438 seconds
#
# Revision: 0
# Processed by: cddbd v1.5.2PL0 Copyright (c) Steve Scherf et al.
# Submitted via: ExactAudioCopyFreeDBPlugin 1.0
#
DISCID=9109840d
DTITLE=Various Artist - Coração Sertanejo - Só Sucessos
DYEAR=1900
DGENRE=Country
TTITLE0=Lei E Leu - Boiadeiro Errante
TTITLE1=Biá E Goiá - Lição De Caboclo
TTITLE2=Leôncio E Leonel - Pai João E Mãe Maria
TTITLE3=Jacó and Jacozinho - Castigo De Fazendeiro
TTITLE4=Abel E Caim - Menino Boiadeiro
TTITLE5=Tião Carreiro and Carreirinho - Saudade Da Minha Terra
TTITLE6=Tião Carreiro and Pardinho - Ferreirinha
TTITLE7=Poeta Sofredor
TTITLE8=Zé Do Cedro E João Do Pinho - Dela Eu Não Esqueço
TTITLE9=Relógio Quebrado
TTITLE10=Milagre Dos Santos Reis
TTITLE11=Mãe Do Nosso Pai Primeiro
TTITLE12=Rainha Do Paraná
EXTD=
EXTT0=
EXTT1=
EXTT2=
EXTT3=
EXTT4=
EXTT5=
EXTT6=
EXTT7=
EXTT8=
EXTT9=
EXTT10=
EXTT11=
EXTT12=
PLAYORDER=
